HIERARCHY
ROOT Hips
{
	OFFSET -289.291687 93.277428 487.970490
	CHANNELS 6 Xposition Yposition Zposition Zrotation Yrotation Xrotation 
	JOINT LeftUpLeg
	{
		OFFSET 0.103457 1.857815 10.548515
		CHANNELS 3 Zrotation Yrotation Xrotation
		JOINT LeftLeg
		{
			OFFSET 43.500000 -0.000031 0.000010
			CHANNELS 3 Zrotation Yrotation Xrotation
			JOINT LeftFoot
			{
				OFFSET 42.372196 0.000027 0.000010
				CHANNELS 3 Zrotation Yrotation Xrotation
				JOINT LeftToe
				{
					OFFSET 17.299986 -0.000005 -0.000015
					CHANNELS 3 Zrotation Yrotation Xrotation
					End Site
					{
						OFFSET 0.000000 0.000000 0.000000
					}
				}
			}
		}
	}
	JOINT RightUpLeg
	{
		OFFSET 0.103456 1.857828 -10.548502
		CHANNELS 3 Zrotation Yrotation Xrotation
		JOINT RightLeg
		{
			OFFSET 43.500050 -0.000019 0.000008
			CHANNELS 3 Zrotation Yrotation Xrotation
			JOINT RightFoot
			{
				OFFSET 42.372257 0.000008 0.000000
				CHANNELS 3 Zrotation Yrotation Xrotation
				JOINT RightToe
				{
					OFFSET 17.299990 -0.000006 0.000004
					CHANNELS 3 Zrotation Yrotation Xrotation
					End Site
					{
						OFFSET 0.000000 0.000000 0.000000
					}
				}
			}
		}
	}
	JOINT Spine
	{
		OFFSET 6.901966 -2.603730 -0.000010
		CHANNELS 3 Zrotation Yrotation Xrotation
		JOINT Spine1
		{
			OFFSET 12.588100 0.000015 0.000006
			CHANNELS 3 Zrotation Yrotation Xrotation
			JOINT Spine2
			{
				OFFSET 12.343200 -0.000014 -0.000002
				CHANNELS 3 Zrotation Yrotation Xrotation
				JOINT Neck
				{
					OFFSET 25.832893 0.000000 0.000009
					CHANNELS 3 Zrotation Yrotation Xrotation
					JOINT Head
					{
						OFFSET 11.766606 -0.000005 -0.000008
						CHANNELS 3 Zrotation Yrotation Xrotation
						End Site
						{
							OFFSET 0.000000 0.000000 0.000000
						}
					}
				}
				JOINT LeftShoulder
				{
					OFFSET 19.745899 -1.480379 6.000125
					CHANNELS 3 Zrotation Yrotation Xrotation
					JOINT LeftArm
					{
						OFFSET 11.284120 -0.000014 -0.000022
						CHANNELS 3 Zrotation Yrotation Xrotation
						JOINT LeftForeArm
						{
							OFFSET 33.000046 -0.000003 0.000040
							CHANNELS 3 Zrotation Yrotation Xrotation
							JOINT LeftHand
							{
								OFFSET 25.200005 0.000021 0.000005
								CHANNELS 3 Zrotation Yrotation Xrotation
								End Site
								{
									OFFSET 0.000000 0.000000 0.000000
								}
							}
						}
					}
				}
				JOINT RightShoulder
				{
					OFFSET 19.746098 -1.480364 -6.000083
					CHANNELS 3 Zrotation Yrotation Xrotation
					JOINT RightArm
					{
						OFFSET 11.284119 -0.000012 -0.000016
						CHANNELS 3 Zrotation Yrotation Xrotation
						JOINT RightForeArm
						{
							OFFSET 33.000099 0.000009 0.000020
							CHANNELS 3 Zrotation Yrotation Xrotation
							JOINT RightHand
							{
								OFFSET 25.199772 0.000168 0.000421
								CHANNELS 3 Zrotation Yrotation Xrotation
								End Site
								{
									OFFSET 0.000000 0.000000 0.000000
								}
							}
						}
					}
				}
			}
		}
	}
}
MOTION
Frames: 5
Frame Time: 0.033333
-289.291687 93.277428 487.970490 91.630621 4.127218 87.072385 -172.353813 0.853391 -176.022212 -6.530690 -2.801965 -2.443688 81.704512 1.879417 0.434624 21.454555 0.003091 0.000000 -175.064073 0.102092 179.060212 -13.462893 1.821017 1.726565 84.798001 -1.740649 -2.488100 21.454558 -0.003101 -0.000015 5.826224 -0.533873 0.139662 1.638402 -1.069633 0.272100 1.320245 -1.067835 0.278558 20.335961 4.700102 1.828897 -18.310352 -4.411069 3.513469 -80.094664 -78.235063 -102.778023 -9.535642 -2.198102 -7.251056 -5.011481 -13.167841 0.868151 17.051393 31.852925 20.196941 -127.040863 87.115675 54.818736 -2.721621 4.303364 6.085973 -13.995560 16.960362 -1.163164 15.576812 -5.217410 -14.528096 
-289.291901 93.277351 487.970703 91.630451 4.128098 87.072447 -172.352898 0.853102 -176.022567 -6.530940 -2.801768 -2.443435 81.704868 1.879173 0.434343 21.454551 0.003087 -0.000001 -175.062967 0.101700 179.058504 -13.462688 1.821215 1.727652 84.798048 -1.741454 -2.488411 21.454558 -0.003105 -0.000018 5.826299 -0.533943 0.139679 1.638570 -1.069788 0.272103 1.320408 -1.067986 0.278572 20.336320 4.700686 1.828931 -18.310692 -4.410909 3.513442 -80.096324 -78.235678 -102.776254 -9.534602 -2.197742 -7.247328 -5.011505 -13.166959 0.868098 17.040398 31.794650 20.182138 -127.070779 87.115743 54.788694 -2.722111 4.302444 6.079618 -13.993816 16.957722 -1.163006 15.571192 -5.181359 -14.516281 
-289.337189 93.258186 488.013092 91.607289 4.342698 87.128960 -172.139509 0.811301 -176.061240 -6.591354 -2.779860 -2.383202 81.782506 1.826304 0.389938 21.454553 0.003091 -0.000000 -174.792928 0.020915 178.674566 -13.419290 1.860336 1.998521 84.813990 -1.940364 -2.552506 21.454557 -0.003102 -0.000017 5.852101 -0.558754 0.151328 1.689998 -1.119615 0.294807 1.371833 -1.117681 0.301571 20.386728 4.888133 1.807521 -18.404884 -4.379887 3.476676 -80.463112 -78.418686 -102.389856 -9.329734 -2.139749 -5.968513 -5.020481 -12.870751 0.849414 14.672652 15.388778 16.269362 -132.333358 87.118530 49.507489 -2.772291 4.163100 4.867465 -13.587639 16.459171 -1.128906 14.722232 0.014339 -12.894732 
-289.356110 93.237137 488.051208 91.632684 4.555605 87.297741 -171.967907 0.796795 -175.955386 -6.690493 -2.813929 -2.337864 81.860329 1.795400 0.392783 21.454551 0.003081 -0.000003 -174.537548 -0.020998 178.363027 -13.414664 1.881563 2.297050 84.837390 -2.164292 -2.650390 21.454560 -0.003105 -0.000018 5.880734 -0.599358 0.175330 1.746919 -1.201244 0.341985 1.428759 -1.199013 0.349217 20.422634 5.200639 1.746686 -18.504144 -4.385026 3.409126 -80.648886 -78.646705 -102.180941 -9.191335 -2.258966 -4.230147 -5.541046 -12.767072 0.842975 13.441068 0.394901 13.384885 -132.364217 87.105853 49.477211 -2.728449 4.207738 4.788935 -13.279901 16.280400 -1.115612 14.699998 -3.220570 -13.635622 
-289.359192 93.218224 488.078400 91.683986 4.733292 87.519742 -171.865714 0.800201 -175.756846 -6.824504 -2.873176 -2.314507 81.925872 1.784094 0.413388 21.454551 0.003082 -0.000003 -174.345141 -0.044602 178.116321 -13.464255 1.876760 2.589534 84.895843 -2.373135 -2.702243 21.454558 -0.003107 -0.000017 5.897036 -0.639736 0.197627 1.779158 -1.282364 0.385780 1.460986 -1.279873 0.393512 20.534521 5.407132 1.678179 -18.594862 -4.283504 3.291126 -80.525656 -78.736836 -102.296023 -9.194692 -2.675766 -3.398357 -6.187834 -12.945229 0.854661 12.400581 -2.930636 12.697017 -129.305685 87.189305 52.541848 -2.627351 4.320299 5.724320 -13.026335 16.281200 -1.113980 15.645388 -9.229160 -14.880108 
